<?xml version="1.0" encoding="UTF-8" standalone="no"?>
<!-- Created with Inkscape (http://www.inkscape.org/) -->

<svg
   xmlns:dc="http://purl.org/dc/elements/1.1/"
   xmlns:cc="http://creativecommons.org/ns#"
   xmlns:rdf="http://www.w3.org/1999/02/22-rdf-syntax-ns#"
   xmlns:svg="http://www.w3.org/2000/svg"
   xmlns="http://www.w3.org/2000/svg"
   xmlns:sodipodi="http://sodipodi.sourceforge.net/DTD/sodipodi-0.dtd"
   xmlns:inkscape="http://www.inkscape.org/namespaces/inkscape"
   width="260.38171mm"
   height="150.36465mm"
   viewBox="0 0 260.38171 150.36465"
   version="1.1"
   id="svg8"
   inkscape:version="0.92.1 r15371"
   sodipodi:docname="max6675_connection.svg">
  <defs
     id="defs2" />
  <sodipodi:namedview
     id="base"
     pagecolor="#ffffff"
     bordercolor="#666666"
     borderopacity="1.0"
     inkscape:pageopacity="0.0"
     inkscape:pageshadow="2"
     inkscape:zoom="0.49497475"
     inkscape:cx="450.76797"
     inkscape:cy="295.55909"
     inkscape:document-units="mm"
     inkscape:current-layer="layer1"
     showgrid="false"
     fit-margin-top="0"
     fit-margin-left="0"
     fit-margin-right="0"
     fit-margin-bottom="0"
     inkscape:window-width="1280"
     inkscape:window-height="976"
     inkscape:window-x="0"
     inkscape:window-y="0"
     inkscape:window-maximized="1" />
  <metadata
     id="metadata5">
    <rdf:RDF>
      <cc:Work
         rdf:about="">
        <dc:format>image/svg+xml</dc:format>
        <dc:type
           rdf:resource="http://purl.org/dc/dcmitype/StillImage" />
        <dc:title></dc:title>
      </cc:Work>
    </rdf:RDF>
  </metadata>
  <g
     inkscape:label="Layer 1"
     inkscape:groupmode="layer"
     id="layer1"
     transform="translate(75.717262,-58.310941)">
    <g
       id="g5685">
      <rect
         y="75.127968"
         x="-75.217262"
         height="57.452377"
         width="82.776787"
         id="rect5417"
         style="fill:none;fill-opacity:0.96296297;stroke:#0b0000;stroke-width:1;stroke-miterlimit:4;stroke-dasharray:none;stroke-opacity:1" />
      <text
         id="text5421"
         y="83.507141"
         x="-72.130013"
         style="font-style:normal;font-weight:normal;font-size:6.08568478px;line-height:1.25;font-family:sans-serif;letter-spacing:0px;word-spacing:0px;fill:#000000;fill-opacity:1;stroke:none;stroke-width:0.15214212"
         xml:space="preserve"><tspan
           style="stroke-width:0.15214212"
           y="83.507141"
           x="-72.130013"
           id="tspan5419"
           sodipodi:role="line">MAX6675</tspan></text>
      <path
         inkscape:connector-curvature="0"
         id="path5423"
         d="M -2.2678565,84.199404 H 31.372024"
         style="fill:none;stroke:#000000;stroke-width:3;stroke-linecap:butt;stroke-linejoin:miter;stroke-miterlimit:4;stroke-dasharray:none;stroke-opacity:1" />
      <path
         inkscape:connector-curvature="0"
         id="path5423-4"
         d="M -2.2678575,93.648821 H 31.372024"
         style="fill:none;stroke:#000000;stroke-width:3;stroke-linecap:butt;stroke-linejoin:miter;stroke-miterlimit:4;stroke-dasharray:none;stroke-opacity:1" />
      <path
         inkscape:connector-curvature="0"
         id="path5423-3"
         d="M -2.2678577,112.54761 H 31.372025"
         style="fill:none;stroke:#000000;stroke-width:3;stroke-linecap:butt;stroke-linejoin:miter;stroke-miterlimit:4;stroke-dasharray:none;stroke-opacity:1" />
      <path
         inkscape:connector-curvature="0"
         id="path5423-0"
         d="M -2.2678575,121.99702 H 31.372025"
         style="fill:none;stroke:#000000;stroke-width:3;stroke-linecap:butt;stroke-linejoin:miter;stroke-miterlimit:4;stroke-dasharray:none;stroke-opacity:1" />
      <path
         inkscape:connector-curvature="0"
         id="path5423-30"
         d="M -2.2678575,103.0982 H 31.372025"
         style="fill:none;stroke:#000000;stroke-width:3;stroke-linecap:butt;stroke-linejoin:miter;stroke-miterlimit:4;stroke-dasharray:none;stroke-opacity:1" />
      <text
         id="text5460"
         y="125.77678"
         x="-23.434525"
         style="font-style:normal;font-weight:normal;font-size:10.58333302px;line-height:1.25;font-family:sans-serif;letter-spacing:0px;word-spacing:0px;fill:#000000;fill-opacity:1;stroke:none;stroke-width:0.26458332"
         xml:space="preserve"><tspan
           style="stroke-width:0.26458332"
           y="125.77678"
           x="-23.434525"
           id="tspan5458"
           sodipodi:role="line">gnd</tspan></text>
      <text
         id="text5464"
         y="114.89106"
         x="-24.644047"
         style="font-style:normal;font-weight:normal;font-size:10.58333302px;line-height:1.25;font-family:sans-serif;letter-spacing:0px;word-spacing:0px;fill:#000000;fill-opacity:1;stroke:none;stroke-width:0.26458332"
         xml:space="preserve"><tspan
           style="stroke-width:0.26458332"
           y="114.89106"
           x="-24.644047"
           id="tspan5462"
           sodipodi:role="line">vcc</tspan></text>
      <text
         id="text5468"
         y="95.916656"
         x="-21.922619"
         style="font-style:normal;font-weight:normal;font-size:10.58333302px;line-height:1.25;font-family:sans-serif;letter-spacing:0px;word-spacing:0px;fill:#000000;fill-opacity:1;stroke:none;stroke-width:0.26458332"
         xml:space="preserve"><tspan
           style="stroke-width:0.26458332"
           y="95.916656"
           x="-21.922619"
           id="tspan5466"
           sodipodi:role="line">sck</tspan></text>
      <text
         id="text5472"
         y="105.36607"
         x="-14.741073"
         style="font-style:normal;font-weight:normal;font-size:10.58333302px;line-height:1.25;font-family:sans-serif;letter-spacing:0px;word-spacing:0px;fill:#000000;fill-opacity:1;stroke:none;stroke-width:0.26458332"
         xml:space="preserve"><tspan
           style="stroke-width:0.26458332"
           y="105.36607"
           x="-14.741073"
           id="tspan5470"
           sodipodi:role="line">cs</tspan></text>
      <text
         id="text5476"
         y="87.223213"
         x="-17.00893"
         style="font-style:normal;font-weight:normal;font-size:10.58333302px;line-height:1.25;font-family:sans-serif;letter-spacing:0px;word-spacing:0px;fill:#000000;fill-opacity:1;stroke:none;stroke-width:0.26458332"
         xml:space="preserve"><tspan
           style="stroke-width:0.26458332"
           y="87.223213"
           x="-17.00893"
           id="tspan5474"
           sodipodi:role="line">so</tspan></text>
    </g>
    <path
       style="fill:none;stroke:#000000;stroke-width:1;stroke-linecap:butt;stroke-linejoin:miter;stroke-miterlimit:4;stroke-dasharray:none;stroke-opacity:1"
       d="m 31.372024,121.99702 h 14.363094 v 72.94941 H 136.4494 v -4.53572"
       id="path5687"
       inkscape:connector-curvature="0" />
    <path
       style="fill:none;stroke:#ff0100;stroke-width:1;stroke-linecap:butt;stroke-linejoin:miter;stroke-miterlimit:4;stroke-dasharray:none;stroke-opacity:1"
       d="m 31.372024,112.54761 h 44.60119 V 67.190476 h 59.342256"
       id="path5689"
       inkscape:connector-curvature="0" />
    <path
       style="fill:none;stroke:#ca00ff;stroke-width:1;stroke-linecap:butt;stroke-linejoin:miter;stroke-miterlimit:4;stroke-dasharray:none;stroke-opacity:1"
       d="m 31.372024,93.64882 h 28.72619 V 208.17559 H 184.0744 v -68.79166 h -39.6875"
       id="path5693"
       inkscape:connector-curvature="0" />
    <path
       style="fill:none;stroke:#ff7d00;stroke-width:1;stroke-linecap:butt;stroke-linejoin:miter;stroke-miterlimit:4;stroke-dasharray:none;stroke-opacity:1"
       d="m 31.372024,84.199404 h 51.40476 V 131.8244 h 54.428576"
       id="path5695"
       inkscape:connector-curvature="0" />
    <path
       style="fill:none;stroke:#00ff00;stroke-width:1;stroke-linecap:butt;stroke-linejoin:miter;stroke-miterlimit:4;stroke-dasharray:none;stroke-opacity:1"
       d="M 31.372024,103.0982 H 68.41369 v 34.77382 h 66.90178"
       id="path5697"
       inkscape:connector-curvature="0" />
    <g
       id="g5665">
      <path
         id="path4830"
         d="m 136.44618,70.416692 c -1.54226,0 -2.79215,1.250157 -2.79215,2.792148 0,1.541992 1.24989,2.792148 2.79215,2.792148 1.54199,0 2.79267,-1.250156 2.79267,-2.792148 0,-1.54252 -1.25042,-2.792148 -2.79267,-2.792148 z m 0,3.489061 c -0.3863,0 -0.69824,-0.312738 -0.69824,-0.698236 0,-0.386027 0.31194,-0.698764 0.69824,-0.698764 0.38576,0 0.69876,0.312737 0.69876,0.698764 -5.3e-4,0.385763 -0.313,0.698236 -0.69876,0.698236 z"
         stroke-miterlimit="10"
         inkscape:connector-curvature="0"
         style="fill:#00aeef;stroke:#000000;stroke-width:0.06614583;stroke-miterlimit:10" />
      <path
         id="path4832"
         d="m 136.44618,76.983386 c -1.54226,0 -2.79215,1.249892 -2.79215,2.792148 0,1.541992 1.24989,2.791883 2.79215,2.791883 1.54199,0 2.79267,-1.250156 2.79267,-2.791883 -2.6e-4,-1.542256 -1.25042,-2.792148 -2.79267,-2.792148 z m 0,3.489061 c -0.3863,0 -0.69824,-0.312473 -0.69824,-0.697971 0,-0.385763 0.31194,-0.6985 0.69824,-0.6985 0.38576,0 0.69876,0.312737 0.69876,0.6985 -5.3e-4,0.385498 -0.313,0.697971 -0.69876,0.697971 z"
         stroke-miterlimit="10"
         inkscape:connector-curvature="0"
         style="fill:#00aeef;stroke:#000000;stroke-width:0.06614583;stroke-miterlimit:10" />
      <path
         id="path4834"
         d="m 136.44618,83.550344 c -1.54226,0 -2.79215,1.249892 -2.79215,2.792413 0,1.541992 1.24989,2.792148 2.79215,2.792148 1.54199,0 2.79267,-1.250421 2.79267,-2.792148 -2.6e-4,-1.542786 -1.25042,-2.792413 -2.79267,-2.792413 z m 0,3.489061 c -0.3863,0 -0.69824,-0.312473 -0.69824,-0.697971 0,-0.385763 0.31194,-0.6985 0.69824,-0.6985 0.38576,0 0.69876,0.312737 0.69876,0.6985 -5.3e-4,0.385498 -0.313,0.697971 -0.69876,0.697971 z"
         stroke-miterlimit="10"
         inkscape:connector-curvature="0"
         style="fill:#009444;stroke:#000000;stroke-width:0.06614583;stroke-miterlimit:10" />
      <path
         id="path4836"
         d="m 136.44618,90.117038 c -1.54226,0 -2.79215,1.250156 -2.79215,2.792677 0,1.541727 1.24989,2.791883 2.79215,2.791883 1.54199,0 2.79267,-1.250156 2.79267,-2.791883 -2.6e-4,-1.542785 -1.25042,-2.792677 -2.79267,-2.792677 z m 0,3.48906 c -0.3863,0 -0.69824,-0.312472 -0.69824,-0.69797 0,-0.385763 0.31194,-0.698765 0.69824,-0.698765 0.38576,0 0.69876,0.313002 0.69876,0.698765 -5.3e-4,0.385762 -0.313,0.69797 -0.69876,0.69797 z"
         stroke-miterlimit="10"
         inkscape:connector-curvature="0"
         style="stroke:#000000;stroke-width:0.06614583;stroke-miterlimit:10" />
      <path
         id="path4838"
         d="m 136.44618,96.683732 c -1.54226,0 -2.79215,1.249891 -2.79215,2.792412 0,1.541726 1.24989,2.792146 2.79215,2.792146 1.54199,0 2.79267,-1.25042 2.79267,-2.792146 -2.6e-4,-1.542521 -1.25042,-2.792412 -2.79267,-2.792412 z m 0,3.489328 c -0.3863,0 -0.69824,-0.312476 -0.69824,-0.698503 0,-0.385763 0.31194,-0.6985 0.69824,-0.6985 0.38576,0 0.69876,0.312737 0.69876,0.6985 -5.3e-4,0.386027 -0.313,0.698503 -0.69876,0.698503 z"
         stroke-miterlimit="10"
         inkscape:connector-curvature="0"
         style="fill:#009444;stroke:#000000;stroke-width:0.06614583;stroke-miterlimit:10" />
      <path
         id="path4840"
         d="m 136.44618,103.25069 c -1.54226,0 -2.79215,1.25016 -2.79215,2.79241 0,1.54173 1.24989,2.79189 2.79215,2.79189 1.54199,0 2.79267,-1.25016 2.79267,-2.79189 -2.6e-4,-1.54252 -1.25042,-2.79241 -2.79267,-2.79241 z m 0,3.48932 c -0.3863,0 -0.69824,-0.31273 -0.69824,-0.6985 0,-0.38576 0.31194,-0.6985 0.69824,-0.6985 0.38576,0 0.69876,0.31248 0.69876,0.6985 0,0.38603 -0.313,0.6985 -0.69876,0.6985 z"
         stroke-miterlimit="10"
         inkscape:connector-curvature="0"
         style="fill:#009444;stroke:#000000;stroke-width:0.06614583;stroke-miterlimit:10" />
      <path
         id="path4842"
         d="m 136.44618,109.81738 c -1.54226,0 -2.79215,1.25042 -2.79215,2.79268 0,1.54199 1.24989,2.79215 2.79215,2.79215 1.54199,0 2.79267,-1.25069 2.79267,-2.79215 -2.6e-4,-1.54252 -1.25042,-2.79268 -2.79267,-2.79268 z m 0,3.48959 c -0.3863,0 -0.69824,-0.31273 -0.69824,-0.69876 0,-0.3855 0.31194,-0.6985 0.69824,-0.6985 0.38576,0 0.69876,0.31247 0.69876,0.6985 -5.3e-4,0.38576 -0.313,0.69876 -0.69876,0.69876 z"
         stroke-miterlimit="10"
         inkscape:connector-curvature="0"
         style="fill:#009444;stroke:#000000;stroke-width:0.06614583;stroke-miterlimit:10" />
      <path
         id="path4844"
         d="m 136.44618,116.38408 c -1.54226,0 -2.79215,1.25042 -2.79215,2.79241 0,1.54173 1.24989,2.79241 2.79215,2.79241 1.54199,0 2.79267,-1.25068 2.79267,-2.79241 -2.6e-4,-1.54199 -1.25042,-2.79241 -2.79267,-2.79241 z m 0,3.48959 c -0.3863,0 -0.69824,-0.31274 -0.69824,-0.6985 0,-0.38577 0.31194,-0.6985 0.69824,-0.6985 0.38576,0 0.69876,0.31273 0.69876,0.6985 -5.3e-4,0.38576 -0.313,0.6985 -0.69876,0.6985 z"
         stroke-miterlimit="10"
         inkscape:connector-curvature="0"
         style="fill:#f7941e;stroke:#000000;stroke-width:0.06614583;stroke-miterlimit:10" />
      <path
         id="path4846"
         d="m 136.44618,122.95104 c -1.54226,0 -2.79215,1.25068 -2.79215,2.79267 0,1.54173 1.24989,2.79215 2.79215,2.79215 1.54199,0 2.79267,-1.25042 2.79267,-2.79215 -2.6e-4,-1.54225 -1.25042,-2.79267 -2.79267,-2.79267 z m 0,3.48959 c -0.3863,0 -0.69824,-0.31301 -0.69824,-0.6985 0,-0.38603 0.31194,-0.6985 0.69824,-0.6985 0.38576,0 0.69876,0.3122 0.69876,0.6985 -5.3e-4,0.38549 -0.313,0.6985 -0.69876,0.6985 z"
         stroke-miterlimit="10"
         inkscape:connector-curvature="0"
         style="fill:#92278f;stroke:#000000;stroke-width:0.06614583;stroke-miterlimit:10" />
      <path
         id="path4848"
         d="m 136.44618,129.51826 c -1.54226,0 -2.79215,1.25015 -2.79215,2.79268 0,1.54172 1.24989,2.79161 2.79215,2.79161 1.54199,0 2.79267,-1.24989 2.79267,-2.79161 -2.6e-4,-1.54279 -1.25042,-2.79268 -2.79267,-2.79268 z m 0,3.48906 c -0.3863,0 -0.69824,-0.31247 -0.69824,-0.69797 0,-0.38603 0.31194,-0.6985 0.69824,-0.6985 0.38576,0 0.69876,0.31247 0.69876,0.6985 -5.3e-4,0.38576 -0.313,0.69797 -0.69876,0.69797 z"
         stroke-miterlimit="10"
         inkscape:connector-curvature="0"
         style="fill:#92278f;stroke:#000000;stroke-width:0.06614583;stroke-miterlimit:10" />
      <path
         id="path4850"
         d="m 136.44618,136.08495 c -1.54226,0 -2.79215,1.25069 -2.79215,2.79215 0,1.54173 1.24989,2.79294 2.79215,2.79294 1.54199,0 2.79267,-1.25121 2.79267,-2.79294 -2.6e-4,-1.54146 -1.25042,-2.79215 -2.79267,-2.79215 z m 0,3.48986 c -0.3863,0 -0.69824,-0.31301 -0.69824,-0.69797 0,-0.38603 0.31194,-0.6993 0.69824,-0.6993 0.38576,0 0.69876,0.31274 0.69876,0.6993 -5.3e-4,0.38523 -0.313,0.69797 -0.69876,0.69797 z"
         stroke-miterlimit="10"
         inkscape:connector-curvature="0"
         style="fill:#92278f;stroke:#000000;stroke-width:0.06614583;stroke-miterlimit:10" />
      <path
         id="path4852"
         d="m 136.44618,142.65297 c -1.54226,0 -2.79215,1.24936 -2.79215,2.79241 0,1.54199 1.24989,2.79136 2.79215,2.79136 1.54199,0 2.79267,-1.24937 2.79267,-2.79136 -2.6e-4,-1.54331 -1.25042,-2.79241 -2.79267,-2.79241 z m 0,3.48827 c -0.3863,0 -0.69824,-0.31248 -0.69824,-0.69745 0,-0.38602 0.31194,-0.69903 0.69824,-0.69903 0.38576,0 0.69876,0.31301 0.69876,0.69903 -5.3e-4,0.38497 -0.313,0.69745 -0.69876,0.69745 z"
         stroke-miterlimit="10"
         inkscape:connector-curvature="0"
         style="stroke:#000000;stroke-width:0.06614583;stroke-miterlimit:10" />
      <path
         id="path4854"
         d="m 143.0134,63.84947 c -1.54173,0 -2.79188,1.25042 -2.79188,2.792677 0,1.542256 1.25015,2.792148 2.79188,2.792148 1.54252,0 2.79241,-1.249892 2.79241,-2.792148 0,-1.542257 -1.25016,-2.792677 -2.79241,-2.792677 z m 0,3.489589 c -0.3855,0 -0.6985,-0.312737 -0.6985,-0.698235 0,-0.385763 0.313,-0.6985 0.6985,-0.6985 0.38523,0 0.6985,0.312737 0.6985,0.6985 0,0.385498 -0.31327,0.698235 -0.6985,0.698235 z"
         stroke-miterlimit="10"
         inkscape:connector-curvature="0"
         style="fill:#ed1c24;stroke:#000000;stroke-width:0.06614583;stroke-miterlimit:10" />
      <path
         id="path4856"
         d="m 143.0134,70.416692 c -1.54173,0 -2.79188,1.250157 -2.79188,2.792148 0,1.541992 1.25015,2.792148 2.79188,2.792148 1.54252,0 2.79241,-1.250156 2.79241,-2.792148 0,-1.54252 -1.25016,-2.792148 -2.79241,-2.792148 z m 0,3.489061 c -0.3855,0 -0.6985,-0.312738 -0.6985,-0.698236 0,-0.386027 0.313,-0.698764 0.6985,-0.698764 0.38523,0 0.6985,0.312737 0.6985,0.698764 0,0.385763 -0.31327,0.698236 -0.6985,0.698236 z"
         stroke-miterlimit="10"
         inkscape:connector-curvature="0"
         style="fill:#ed1c24;stroke:#000000;stroke-width:0.06614583;stroke-miterlimit:10" />
      <path
         id="path4858"
         d="m 143.0134,76.983386 c -1.54173,0 -2.79188,1.249892 -2.79188,2.792148 0,1.541992 1.25015,2.791883 2.79188,2.791883 1.54252,0 2.79241,-1.250156 2.79241,-2.791883 0,-1.542256 -1.25016,-2.792148 -2.79241,-2.792148 z m 0,3.489061 c -0.3855,0 -0.6985,-0.312473 -0.6985,-0.697971 0,-0.385763 0.313,-0.6985 0.6985,-0.6985 0.38523,0 0.6985,0.312737 0.6985,0.6985 0,0.385498 -0.31327,0.697971 -0.6985,0.697971 z"
         stroke-miterlimit="10"
         inkscape:connector-curvature="0"
         style="stroke:#000000;stroke-width:0.06614583;stroke-miterlimit:10" />
      <path
         id="path4860"
         d="m 143.0134,83.550344 c -1.54173,0 -2.79188,1.249892 -2.79188,2.792413 0,1.541992 1.25015,2.792148 2.79188,2.792148 1.54252,0 2.79241,-1.250421 2.79241,-2.792148 0,-1.542786 -1.25016,-2.792413 -2.79241,-2.792413 z m 0,3.489061 c -0.3855,0 -0.6985,-0.312473 -0.6985,-0.697971 0,-0.385763 0.313,-0.6985 0.6985,-0.6985 0.38523,0 0.6985,0.312737 0.6985,0.6985 0,0.385498 -0.31327,0.697971 -0.6985,0.697971 z"
         stroke-miterlimit="10"
         inkscape:connector-curvature="0"
         style="fill:#fff200;stroke:#000000;stroke-width:0.06614583;stroke-miterlimit:10" />
      <path
         id="path4862"
         d="m 143.0134,90.117038 c -1.54173,0 -2.79188,1.250156 -2.79188,2.792677 0,1.541727 1.25015,2.791883 2.79188,2.791883 1.54252,0 2.79241,-1.250156 2.79241,-2.791883 0,-1.542785 -1.25016,-2.792677 -2.79241,-2.792677 z m 0,3.48906 c -0.3855,0 -0.6985,-0.312472 -0.6985,-0.69797 0,-0.385763 0.313,-0.698765 0.6985,-0.698765 0.38523,0 0.6985,0.313002 0.6985,0.698765 0,0.385762 -0.31327,0.69797 -0.6985,0.69797 z"
         stroke-miterlimit="10"
         inkscape:connector-curvature="0"
         style="fill:#fff200;stroke:#000000;stroke-width:0.06614583;stroke-miterlimit:10" />
      <path
         id="path4864"
         d="m 143.0134,96.683732 c -1.54173,0 -2.79188,1.249891 -2.79188,2.792412 0,1.541726 1.25015,2.792146 2.79188,2.792146 1.54252,0 2.79241,-1.25042 2.79241,-2.792146 0,-1.542521 -1.25016,-2.792412 -2.79241,-2.792412 z m 0,3.489328 c -0.3855,0 -0.6985,-0.312476 -0.6985,-0.698503 0,-0.385763 0.313,-0.6985 0.6985,-0.6985 0.38523,0 0.6985,0.312737 0.6985,0.6985 0,0.386027 -0.31327,0.698503 -0.6985,0.698503 z"
         stroke-miterlimit="10"
         inkscape:connector-curvature="0"
         style="fill:#009444;stroke:#000000;stroke-width:0.06614583;stroke-miterlimit:10" />
      <path
         id="path4866"
         d="m 143.0134,103.25069 c -1.54173,0 -2.79188,1.25016 -2.79188,2.79241 0,1.54173 1.25015,2.79189 2.79188,2.79189 1.54252,0 2.79241,-1.25016 2.79241,-2.79189 0,-1.54252 -1.25016,-2.79241 -2.79241,-2.79241 z m 0,3.48932 c -0.3855,0 -0.6985,-0.31273 -0.6985,-0.6985 0,-0.38576 0.313,-0.6985 0.6985,-0.6985 0.38523,0 0.6985,0.31248 0.6985,0.6985 0,0.38603 -0.31327,0.6985 -0.6985,0.6985 z"
         stroke-miterlimit="10"
         inkscape:connector-curvature="0"
         style="stroke:#000000;stroke-width:0.06614583;stroke-miterlimit:10" />
      <path
         id="path4868"
         d="m 143.0134,109.81738 c -1.54173,0 -2.79188,1.25042 -2.79188,2.79268 0,1.54199 1.25015,2.79215 2.79188,2.79215 1.54252,0 2.79241,-1.25069 2.79241,-2.79215 0,-1.54252 -1.25016,-2.79268 -2.79241,-2.79268 z m 0,3.48959 c -0.3855,0 -0.6985,-0.31273 -0.6985,-0.69876 0,-0.3855 0.313,-0.6985 0.6985,-0.6985 0.38523,0 0.6985,0.31247 0.6985,0.6985 0,0.38576 -0.31327,0.69876 -0.6985,0.69876 z"
         stroke-miterlimit="10"
         inkscape:connector-curvature="0"
         style="fill:#009444;stroke:#000000;stroke-width:0.06614583;stroke-miterlimit:10" />
      <path
         id="path4870"
         d="m 143.0134,116.38408 c -1.54173,0 -2.79188,1.25042 -2.79188,2.79241 0,1.54173 1.25015,2.79241 2.79188,2.79241 1.54252,0 2.79241,-1.25068 2.79241,-2.79241 0,-1.54199 -1.25016,-2.79241 -2.79241,-2.79241 z m 0,3.48959 c -0.3855,0 -0.6985,-0.31274 -0.6985,-0.6985 0,-0.38577 0.313,-0.6985 0.6985,-0.6985 0.38523,0 0.6985,0.31273 0.6985,0.6985 0,0.38576 -0.31327,0.6985 -0.6985,0.6985 z"
         stroke-miterlimit="10"
         inkscape:connector-curvature="0"
         style="fill:#009444;stroke:#000000;stroke-width:0.06614583;stroke-miterlimit:10" />
      <path
         id="path4872"
         d="m 143.0134,122.95104 c -1.54173,0 -2.79188,1.25068 -2.79188,2.79267 0,1.54173 1.25015,2.79215 2.79188,2.79215 1.54252,0 2.79241,-1.25042 2.79241,-2.79215 0,-1.54225 -1.25016,-2.79267 -2.79241,-2.79267 z m 0,3.48959 c -0.3855,0 -0.6985,-0.31301 -0.6985,-0.6985 0,-0.38603 0.313,-0.6985 0.6985,-0.6985 0.38523,0 0.6985,0.3122 0.6985,0.6985 0,0.38549 -0.31327,0.6985 -0.6985,0.6985 z"
         stroke-miterlimit="10"
         inkscape:connector-curvature="0"
         style="stroke:#000000;stroke-width:0.06614583;stroke-miterlimit:10" />
      <path
         id="path4874"
         d="m 143.0134,129.51826 c -1.54173,0 -2.79188,1.25015 -2.79188,2.79268 0,1.54172 1.25015,2.79161 2.79188,2.79161 1.54252,0 2.79241,-1.24989 2.79241,-2.79161 0,-1.54279 -1.25016,-2.79268 -2.79241,-2.79268 z m 0,3.48906 c -0.3855,0 -0.6985,-0.31247 -0.6985,-0.69797 0,-0.38603 0.313,-0.6985 0.6985,-0.6985 0.38523,0 0.6985,0.31247 0.6985,0.6985 0,0.38576 -0.31327,0.69797 -0.6985,0.69797 z"
         stroke-miterlimit="10"
         inkscape:connector-curvature="0"
         style="fill:#009444;stroke:#000000;stroke-width:0.06614583;stroke-miterlimit:10" />
      <path
         id="path4876"
         d="m 143.0134,136.08495 c -1.54173,0 -2.79188,1.25069 -2.79188,2.79215 0,1.54173 1.25015,2.79294 2.79188,2.79294 1.54252,0 2.79241,-1.25121 2.79241,-2.79294 0,-1.54146 -1.25016,-2.79215 -2.79241,-2.79215 z m 0,3.48986 c -0.3855,0 -0.6985,-0.31301 -0.6985,-0.69797 0,-0.38603 0.313,-0.6993 0.6985,-0.6993 0.38523,0 0.6985,0.31274 0.6985,0.6993 0,0.38523 -0.31327,0.69797 -0.6985,0.69797 z"
         stroke-miterlimit="10"
         inkscape:connector-curvature="0"
         style="fill:#92278f;stroke:#000000;stroke-width:0.06614583;stroke-miterlimit:10" />
      <path
         id="path4878"
         d="m 143.0134,142.65297 c -1.54173,0 -2.79188,1.24936 -2.79188,2.79241 0,1.54199 1.25015,2.79136 2.79188,2.79136 1.54252,0 2.79241,-1.24937 2.79241,-2.79136 0,-1.54331 -1.25016,-2.79241 -2.79241,-2.79241 z m 0,3.48827 c -0.3855,0 -0.6985,-0.31248 -0.6985,-0.69745 0,-0.38602 0.313,-0.69903 0.6985,-0.69903 0.38523,0 0.6985,0.31301 0.6985,0.69903 0,0.38497 -0.31327,0.69745 -0.6985,0.69745 z"
         stroke-miterlimit="10"
         inkscape:connector-curvature="0"
         style="fill:#92278f;stroke:#000000;stroke-width:0.06614583;stroke-miterlimit:10" />
      <path
         id="path4880"
         d="m 136.44618,149.21569 c -1.54226,0 -2.79215,1.25122 -2.79215,2.79242 0,1.54199 1.24989,2.79294 2.79215,2.79294 1.54199,0 2.79267,-1.25095 2.79267,-2.79294 -2.6e-4,-1.54147 -1.25042,-2.79242 -2.79267,-2.79242 z m 0,3.49012 c -0.3863,0 -0.69824,-0.313 -0.69824,-0.69903 0,-0.38497 0.31194,-0.69929 0.69824,-0.69929 0.38576,0 0.69876,0.31432 0.69876,0.69929 -5.3e-4,0.38629 -0.313,0.69903 -0.69876,0.69903 z"
         stroke-miterlimit="10"
         inkscape:connector-curvature="0"
         style="fill:#00aeef;stroke:#000000;stroke-width:0.06614583;stroke-miterlimit:10" />
      <path
         id="path4882"
         d="m 136.44618,155.78239 c -1.54226,0 -2.79215,1.25068 -2.79215,2.79267 0,1.54173 1.24989,2.79268 2.79215,2.79268 1.54199,0 2.79267,-1.25095 2.79267,-2.79268 -2.6e-4,-1.54225 -1.25042,-2.79267 -2.79267,-2.79267 z m 0,3.48985 c -0.3863,0 -0.69824,-0.31274 -0.69824,-0.69903 0,-0.38602 0.31194,-0.69903 0.69824,-0.69903 0.38576,0 0.69876,0.31301 0.69876,0.69903 -5.3e-4,0.38656 -0.313,0.69903 -0.69876,0.69903 z"
         stroke-miterlimit="10"
         inkscape:connector-curvature="0"
         style="fill:#009444;stroke:#000000;stroke-width:0.06614583;stroke-miterlimit:10" />
      <path
         id="path4884"
         d="m 136.44618,162.34961 c -1.54226,0 -2.79215,1.25095 -2.79215,2.79241 0,1.54199 1.24989,2.79268 2.79215,2.79268 1.54199,0 2.79267,-1.25069 2.79267,-2.79268 -2.6e-4,-1.54199 -1.25042,-2.79241 -2.79267,-2.79241 z m 0,3.48933 c -0.3863,0 -0.69824,-0.31301 -0.69824,-0.69903 0,-0.38603 0.31194,-0.6993 0.69824,-0.6993 0.38576,0 0.69876,0.31327 0.69876,0.6993 -5.3e-4,0.38682 -0.313,0.69903 -0.69876,0.69903 z"
         stroke-miterlimit="10"
         inkscape:connector-curvature="0"
         style="fill:#009444;stroke:#000000;stroke-width:0.06614583;stroke-miterlimit:10" />
      <path
         id="path4886"
         d="m 136.44618,168.91604 c -1.54226,0 -2.79215,1.25068 -2.79215,2.79268 0,1.54146 1.24989,2.79241 2.79215,2.79241 1.54199,0 2.79267,-1.25095 2.79267,-2.79241 -2.6e-4,-1.542 -1.25042,-2.79268 -2.79267,-2.79268 z m 0,3.48985 c -0.3863,0 -0.69824,-0.313 -0.69824,-0.69903 0,-0.38602 0.31194,-0.69717 0.69824,-0.69717 0.38576,0 0.69876,0.31115 0.69876,0.69717 0,0.38603 -0.313,0.69903 -0.69876,0.69903 z"
         stroke-miterlimit="10"
         inkscape:connector-curvature="0"
         style="fill:#009444;stroke:#000000;stroke-width:0.06614583;stroke-miterlimit:10" />
      <path
         id="path4888"
         d="m 136.44618,175.483 c -1.54226,0 -2.79215,1.25068 -2.79215,2.79373 0,1.54041 1.24989,2.79109 2.79215,2.79109 1.54199,0 2.79267,-1.25068 2.79267,-2.79109 -2.6e-4,-1.54305 -1.25042,-2.79373 -2.79267,-2.79373 z m 0,3.48985 c -0.3863,0 -0.69824,-0.31327 -0.69824,-0.6977 0,-0.38603 0.31194,-0.6993 0.69824,-0.6993 0.38576,0 0.69876,0.31327 0.69876,0.6993 -5.3e-4,0.38496 -0.313,0.6977 -0.69876,0.6977 z"
         stroke-miterlimit="10"
         inkscape:connector-curvature="0"
         style="fill:#009444;stroke:#000000;stroke-width:0.06614583;stroke-miterlimit:10" />
      <path
         id="path4890"
         d="m 136.44618,182.05128 c -1.54226,0 -2.79215,1.25068 -2.79215,2.79215 0,1.54199 1.24989,2.79267 2.79215,2.79267 1.54199,0 2.79267,-1.25068 2.79267,-2.79267 -2.6e-4,-1.54173 -1.25042,-2.79215 -2.79267,-2.79215 z m 0,3.48959 c -0.3863,0 -0.69824,-0.31433 -0.69824,-0.6993 0,-0.38602 0.31194,-0.69902 0.69824,-0.69902 0.38576,0 0.69876,0.313 0.69876,0.69902 -5.3e-4,0.38524 -0.313,0.6993 -0.69876,0.6993 z"
         stroke-miterlimit="10"
         inkscape:connector-curvature="0"
         style="fill:#009444;stroke:#000000;stroke-width:0.06614583;stroke-miterlimit:10" />
      <path
         id="path4892"
         d="m 136.44618,188.61771 c -1.54226,0 -2.79215,1.25095 -2.79215,2.79215 0,1.54199 1.24989,2.79294 2.79215,2.79294 1.54199,0 2.79267,-1.25095 2.79267,-2.79294 -2.6e-4,-1.54147 -1.25042,-2.79215 -2.79267,-2.79215 z m 0,3.48959 c -0.3863,0 -0.69824,-0.313 -0.69824,-0.69903 0,-0.38603 0.31194,-0.69718 0.69824,-0.69718 0.38576,0 0.69876,0.31115 0.69876,0.69718 0,0.38603 -0.313,0.69903 -0.69876,0.69903 z"
         stroke-miterlimit="10"
         inkscape:connector-curvature="0"
         style="stroke:#000000;stroke-width:0.06614583;stroke-miterlimit:10" />
      <path
         id="path4894"
         d="m 143.0134,149.21569 c -1.54173,0 -2.79188,1.25122 -2.79188,2.79242 0,1.54199 1.25015,2.79294 2.79188,2.79294 1.54252,0 2.79241,-1.25095 2.79241,-2.79294 0,-1.54147 -1.25016,-2.79242 -2.79241,-2.79242 z m 0,3.49012 c -0.3855,0 -0.6985,-0.313 -0.6985,-0.69903 0,-0.38497 0.313,-0.69929 0.6985,-0.69929 0.38523,0 0.6985,0.31432 0.6985,0.69929 0,0.38629 -0.31327,0.69903 -0.6985,0.69903 z"
         stroke-miterlimit="10"
         inkscape:connector-curvature="0"
         style="fill:#00aeef;stroke:#000000;stroke-width:0.06614583;stroke-miterlimit:10" />
      <path
         id="path4896"
         d="m 143.0134,155.78239 c -1.54173,0 -2.79188,1.25068 -2.79188,2.79267 0,1.54173 1.25015,2.79268 2.79188,2.79268 1.54252,0 2.79241,-1.25095 2.79241,-2.79268 0,-1.54225 -1.25016,-2.79267 -2.79241,-2.79267 z m 0,3.48985 c -0.3855,0 -0.6985,-0.31274 -0.6985,-0.69903 0,-0.38602 0.313,-0.69903 0.6985,-0.69903 0.38523,0 0.6985,0.31301 0.6985,0.69903 0,0.38656 -0.31327,0.69903 -0.6985,0.69903 z"
         stroke-miterlimit="10"
         inkscape:connector-curvature="0"
         style="stroke:#000000;stroke-width:0.06614583;stroke-miterlimit:10" />
      <path
         id="path4898"
         d="m 143.0134,162.34961 c -1.54173,0 -2.79188,1.25095 -2.79188,2.79241 0,1.54199 1.25015,2.79268 2.79188,2.79268 1.54252,0 2.79241,-1.25069 2.79241,-2.79268 0,-1.54199 -1.25016,-2.79241 -2.79241,-2.79241 z m 0,3.48933 c -0.3855,0 -0.6985,-0.31301 -0.6985,-0.69903 0,-0.38603 0.313,-0.6993 0.6985,-0.6993 0.38523,0 0.6985,0.31327 0.6985,0.6993 0,0.38682 -0.31327,0.69903 -0.6985,0.69903 z"
         stroke-miterlimit="10"
         inkscape:connector-curvature="0"
         style="fill:#009444;stroke:#000000;stroke-width:0.06614583;stroke-miterlimit:10" />
      <path
         id="path4900"
         d="m 143.0134,168.91604 c -1.54173,0 -2.79188,1.25068 -2.79188,2.79268 0,1.54146 1.25015,2.79241 2.79188,2.79241 1.54252,0 2.79241,-1.25095 2.79241,-2.79241 0,-1.542 -1.25016,-2.79268 -2.79241,-2.79268 z m 0,3.48985 c -0.3855,0 -0.6985,-0.313 -0.6985,-0.69903 0,-0.38602 0.313,-0.69717 0.6985,-0.69717 0.38523,0 0.6985,0.31115 0.6985,0.69717 0,0.38603 -0.31327,0.69903 -0.6985,0.69903 z"
         stroke-miterlimit="10"
         inkscape:connector-curvature="0"
         style="stroke:#000000;stroke-width:0.06614583;stroke-miterlimit:10" />
      <path
         id="path4902"
         d="m 143.0134,175.483 c -1.54173,0 -2.79188,1.25068 -2.79188,2.79373 0,1.54041 1.25015,2.79109 2.79188,2.79109 1.54252,0 2.79241,-1.25068 2.79241,-2.79109 0,-1.54305 -1.25016,-2.79373 -2.79241,-2.79373 z m 0,3.48985 c -0.3855,0 -0.6985,-0.31327 -0.6985,-0.6977 0,-0.38603 0.313,-0.6993 0.6985,-0.6993 0.38523,0 0.6985,0.31327 0.6985,0.6993 0,0.38496 -0.31327,0.6977 -0.6985,0.6977 z"
         stroke-miterlimit="10"
         inkscape:connector-curvature="0"
         style="fill:#009444;stroke:#000000;stroke-width:0.06614583;stroke-miterlimit:10" />
      <path
         id="path4904"
         d="m 143.0134,182.05128 c -1.54173,0 -2.79188,1.25068 -2.79188,2.79215 0,1.54199 1.25015,2.79267 2.79188,2.79267 1.54252,0 2.79241,-1.25068 2.79241,-2.79267 0,-1.54173 -1.25016,-2.79215 -2.79241,-2.79215 z m 0,3.48959 c -0.3855,0 -0.6985,-0.31433 -0.6985,-0.6993 0,-0.38602 0.313,-0.69902 0.6985,-0.69902 0.38523,0 0.6985,0.313 0.6985,0.69902 0,0.38524 -0.31327,0.6993 -0.6985,0.6993 z"
         stroke-miterlimit="10"
         inkscape:connector-curvature="0"
         style="fill:#009444;stroke:#000000;stroke-width:0.06614583;stroke-miterlimit:10" />
      <path
         id="path4906"
         d="m 143.0134,188.61771 c -1.54173,0 -2.79188,1.25095 -2.79188,2.79215 0,1.54199 1.25015,2.79294 2.79188,2.79294 1.54252,0 2.79241,-1.25095 2.79241,-2.79294 0,-1.54147 -1.25016,-2.79215 -2.79241,-2.79215 z m 0,3.48959 c -0.3855,0 -0.6985,-0.313 -0.6985,-0.69903 0,-0.38603 0.313,-0.69718 0.6985,-0.69718 0.38523,0 0.6985,0.31115 0.6985,0.69718 0,0.38603 -0.31327,0.69903 -0.6985,0.69903 z"
         stroke-miterlimit="10"
         inkscape:connector-curvature="0"
         style="fill:#009444;stroke:#000000;stroke-width:0.06614583;stroke-miterlimit:10" />
      <path
         id="path4908"
         d="m 133.65429,63.84947 v 5.584031 h 5.58403 V 63.84947 Z m 2.79241,3.51155 c -0.39766,0 -0.72046,-0.321998 -0.72046,-0.719667 0,-0.397404 0.3228,-0.719931 0.72046,-0.719931 0.39741,0 0.71967,0.322527 0.71967,0.719931 -2.6e-4,0.397669 -0.32226,0.719667 -0.71967,0.719667 z"
         stroke-miterlimit="10"
         inkscape:connector-curvature="0"
         style="fill:#f7941e;stroke:#000000;stroke-width:0.06614583;stroke-miterlimit:10" />
      <rect
         id="rect4910"
         height="133.19098"
         width="14.556316"
         stroke-miterlimit="10"
         y="62.592171"
         x="132.39568"
         style="fill:none;stroke:#000000;stroke-width:0.26458332;stroke-miterlimit:10" />
      <text
         y="61.060127"
         x="135.13129"
         id="text4914"
         font-size="14"
         style="font-size:3.70416665px;font-family:sans-serif;stroke-width:0.26458332">1</text>
      <text
         y="61.060127"
         x="141.69804"
         id="text4916"
         font-size="14"
         style="font-size:3.70416665px;font-family:sans-serif;stroke-width:0.26458332">2</text>
      <text
         y="67.735931"
         x="106.65264"
         id="text4922"
         font-size="14"
         style="font-size:3.70416665px;font-family:sans-serif;stroke-width:0.26458332">+3.3V Power</text>
      <text
         y="74.302734"
         x="105.36435"
         id="text4924"
         font-size="14"
         style="font-size:3.70416665px;font-family:sans-serif;stroke-width:0.26458332">GPIO 2 (SDA)</text>
      <text
         y="80.870033"
         x="105.65606"
         id="text4926"
         font-size="14"
         style="font-size:3.70416665px;font-family:sans-serif;stroke-width:0.26458332">GPIO 3 (SCL)</text>
      <text
         y="87.436806"
         x="97.847252"
         id="text4928"
         font-size="14"
         style="font-size:3.70416665px;font-family:sans-serif;stroke-width:0.26458332">GPIO 4 (GPCLK0)</text>
      <text
         y="94.003578"
         x="115.94277"
         id="text4930"
         font-size="14"
         style="font-size:3.70416665px;font-family:sans-serif;stroke-width:0.26458332">Ground</text>
      <text
         y="100.57088"
         x="114.18966"
         id="text4932"
         font-size="14"
         style="font-size:3.70416665px;font-family:sans-serif;stroke-width:0.26458332">GPIO 17</text>
      <text
         y="102.76286"
         x="120.30492"
         id="text4934"
         font-size="14"
         transform="scale(0.9591663,1.0425721)"
         style="font-size:3.55291176px;font-family:sans-serif;stroke-width:0.25377941">GPIO 27</text>
      <text
         y="67.735931"
         x="150.23808"
         id="text4936"
         font-size="14"
         style="font-size:3.70416665px;font-family:sans-serif;stroke-width:0.26458332">+5V Power</text>
      <text
         y="74.302734"
         x="150.23808"
         id="text4938"
         font-size="14"
         style="font-size:3.70416665px;font-family:sans-serif;stroke-width:0.26458332">+5V Power</text>
      <text
         y="80.870033"
         x="150.23808"
         id="text4940"
         font-size="14"
         style="font-size:3.70416665px;font-family:sans-serif;stroke-width:0.26458332">Ground</text>
      <text
         y="87.436806"
         x="150.23808"
         id="text4942"
         font-size="14"
         style="font-size:3.70416665px;font-family:sans-serif;stroke-width:0.26458332">GPIO 14 (TXD)</text>
      <text
         y="94.003578"
         x="150.23808"
         id="text4944"
         font-size="14"
         style="font-size:3.70416665px;font-family:sans-serif;stroke-width:0.26458332">GPIO 15 (RXD)</text>
      <text
         y="99.560089"
         x="151.76338"
         id="text4946"
         font-size="14"
         transform="scale(0.98994949,1.0101526)"
         style="font-size:3.66693783px;font-family:sans-serif;stroke-width:0.26192412">GPIO 18</text>
      <text
         y="107.13768"
         x="150.23808"
         id="text4948"
         font-size="14"
         style="font-size:3.70416665px;font-family:sans-serif;stroke-width:0.26458332">Ground</text>
      <text
         y="113.70446"
         x="150.23808"
         id="text4950"
         font-size="14"
         style="font-size:3.70416665px;font-family:sans-serif;stroke-width:0.26458332">GPIO 23</text>
      <text
         y="120.27123"
         x="150.23808"
         id="text4952"
         font-size="14"
         style="font-size:3.70416665px;font-family:sans-serif;stroke-width:0.26458332">GPIO 24</text>
      <text
         y="126.83853"
         x="150.23808"
         id="text4954"
         font-size="14"
         style="font-size:3.70416665px;font-family:sans-serif;stroke-width:0.26458332">Ground</text>
      <text
         y="133.40454"
         x="150.23808"
         id="text4956"
         font-size="14"
         style="font-size:3.70416665px;font-family:sans-serif;stroke-width:0.26458332">GPIO 25</text>
      <text
         y="139.97134"
         x="150.23808"
         id="text4958"
         font-size="14"
         style="font-size:3.70416665px;font-family:sans-serif;stroke-width:0.26458332">GPIO 8 (CE0)</text>
      <text
         y="146.5386"
         x="150.23808"
         id="text4960"
         font-size="14"
         style="font-size:3.70416665px;font-family:sans-serif;stroke-width:0.26458332">GPIO 7 (CE1)</text>
      <text
         y="120.27123"
         x="106.65264"
         id="text4962"
         font-size="14"
         style="font-size:3.70416665px;font-family:sans-serif;stroke-width:0.26458332">+3.3V Power</text>
      <text
         y="113.70446"
         x="114.18966"
         id="text4964"
         font-size="14"
         style="font-size:3.70416665px;font-family:sans-serif;stroke-width:0.26458332">GPIO 22</text>
      <text
         y="126.83853"
         x="101.05427"
         id="text4966"
         font-size="14"
         style="font-size:3.70416665px;font-family:sans-serif;stroke-width:0.26458332">GPIO 10 (MOSI)</text>
      <text
         y="133.40454"
         x="103.24483"
         id="text4968"
         font-size="14"
         style="font-size:3.70416665px;font-family:sans-serif;stroke-width:0.26458332">GPIO 9 (MISO)</text>
      <text
         y="139.97134"
         x="100.83749"
         id="text4970"
         font-size="14"
         style="font-size:3.70416665px;font-family:sans-serif;stroke-width:0.26458332">GPIO 11 (SCLK)</text>
      <text
         y="146.5386"
         x="115.94277"
         id="text4972"
         font-size="14"
         style="font-size:3.70416665px;font-family:sans-serif;stroke-width:0.26458332">Ground</text>
      <text
         y="146.85132"
         x="99.003792"
         id="text4974"
         font-size="14"
         transform="scale(0.9591663,1.0425721)"
         style="font-size:3.55291176px;font-family:sans-serif;stroke-width:0.25377941">ID_SD (</text>
      <text
         y="146.85132"
         x="111.67094"
         id="text4976"
         font-size="12.4091"
         transform="scale(0.9591663,1.0425721)"
         style="font-size:3.14917397px;font-family:sans-serif;stroke-width:0.25377941">I</text>
      <text
         y="145.81068"
         x="112.48067"
         id="text4978"
         font-size="7.2345"
         transform="scale(0.95921843,1.0425154)"
         style="font-size:1.83606696px;font-family:sans-serif;stroke-width:0.25379321">2</text>
      <text
         y="146.85132"
         x="113.50733"
         id="text4980"
         font-size="12.4091"
         transform="scale(0.9591663,1.0425721)"
         style="font-size:3.14917397px;font-family:sans-serif;stroke-width:0.25377941">C ID EEPROM</text>
      <text
         y="146.85132"
         x="133.7468"
         id="text4982"
         font-size="14"
         transform="scale(0.9591663,1.0425721)"
         style="font-size:3.55291176px;font-family:sans-serif;stroke-width:0.25377941">)</text>
      <text
         y="146.85132"
         x="156.63403"
         id="text4984"
         font-size="14"
         transform="scale(0.9591663,1.0425721)"
         style="font-size:3.55291176px;font-family:sans-serif;stroke-width:0.25377941">ID_SC (</text>
      <text
         y="146.85132"
         x="169.36935"
         id="text4986"
         font-size="12.4091"
         transform="scale(0.9591663,1.0425721)"
         style="font-size:3.14917397px;font-family:sans-serif;stroke-width:0.25377941">I</text>
      <text
         y="145.81068"
         x="170.17578"
         id="text4988"
         font-size="7.2345"
         transform="scale(0.95921843,1.0425154)"
         style="font-size:1.83606696px;font-family:sans-serif;stroke-width:0.25379321">2</text>
      <text
         y="146.85132"
         x="171.20546"
         id="text4990"
         font-size="12.4091"
         transform="scale(0.9591663,1.0425721)"
         style="font-size:3.14917397px;font-family:sans-serif;stroke-width:0.25377941">C ID EEPROM</text>
      <text
         y="146.85132"
         x="191.44521"
         id="text4992"
         font-size="14"
         transform="scale(0.9591663,1.0425721)"
         style="font-size:3.55291176px;font-family:sans-serif;stroke-width:0.25377941">)</text>
      <text
         y="159.66986"
         x="150.23808"
         id="text4994"
         font-size="14"
         style="font-size:3.70416665px;font-family:sans-serif;stroke-width:0.26458332">Ground</text>
      <text
         y="166.23666"
         x="150.23808"
         id="text4996"
         font-size="14"
         style="font-size:3.70416665px;font-family:sans-serif;stroke-width:0.26458332">GPIO 12</text>
      <text
         y="172.80344"
         x="150.23808"
         id="text4998"
         font-size="14"
         style="font-size:3.70416665px;font-family:sans-serif;stroke-width:0.26458332">Ground</text>
      <text
         y="179.37019"
         x="150.23808"
         id="text5000"
         font-size="14"
         style="font-size:3.70416665px;font-family:sans-serif;stroke-width:0.26458332">GPIO 16</text>
      <text
         y="185.93674"
         x="150.23808"
         id="text5002"
         font-size="14"
         style="font-size:3.70416665px;font-family:sans-serif;stroke-width:0.26458332">GPIO 20</text>
      <text
         y="192.5043"
         x="150.23808"
         id="text5004"
         font-size="14"
         style="font-size:3.70416665px;font-family:sans-serif;stroke-width:0.26458332">GPIO 21</text>
      <text
         y="166.23666"
         x="116.3802"
         id="text5006"
         font-size="14"
         style="font-size:3.70416665px;font-family:sans-serif;stroke-width:0.26458332">GPIO 6</text>
      <text
         y="159.66986"
         x="116.3802"
         id="text5008"
         font-size="14"
         style="font-size:3.70416665px;font-family:sans-serif;stroke-width:0.26458332">GPIO 5</text>
      <text
         y="172.80344"
         x="114.18966"
         id="text5010"
         font-size="14"
         style="font-size:3.70416665px;font-family:sans-serif;stroke-width:0.26458332">GPIO 13</text>
      <text
         y="179.37019"
         x="114.18966"
         id="text5012"
         font-size="14"
         style="font-size:3.70416665px;font-family:sans-serif;stroke-width:0.26458332">GPIO 19</text>
      <text
         y="185.93674"
         x="114.18966"
         id="text5014"
         font-size="14"
         style="font-size:3.70416665px;font-family:sans-serif;stroke-width:0.26458332">GPIO 26</text>
      <text
         y="192.5043"
         x="115.94277"
         id="text5016"
         font-size="14"
         style="font-size:3.70416665px;font-family:sans-serif;stroke-width:0.26458332">Ground</text>
    </g>
  </g>
</svg>
